<?xml version="1.0" encoding="UTF-8"?>
<svg id="Layer_2" data-name="Layer 2" xmlns="http://www.w3.org/2000/svg" xmlns:xlink="http://www.w3.org/1999/xlink" viewBox="0 0 153 100.31">
  <defs>
    <style>
      .cls-1 {
        fill: none;
      }

      .cls-2 {
        fill: #fff;
      }

      .cls-3 {
        clip-path: url(#clippath);
      }
    </style>
    <clipPath id="clippath">
      <path class="cls-1" d="M4.68,62.9c4.66,2.02,9.95,3.28,13.99,3.28,7.31,0,9.45-4.54,9.45-9.07V4.18h37.55v54.18c0,12.85-3.65,22.93-10.33,29.11-7.31,6.8-17.64,9.32-29.23,9.32-8.95,0-17.14-1.89-21.42-4.28v-29.61ZM76.87,58.36c12.22,7.94,24.57,10.84,29.99,10.84,3.78,0,4.66-1.51,4.66-3.02,0-1.76-1.13-2.52-2.77-2.9-4.41-1.13-17.14-2.52-26.46-10.71-4.79-4.28-8.06-10.21-8.06-19.03,0-18.27,14.11-30.75,37.17-30.75,11.09,0,24.19,2.9,32.51,7.18v29.86c-11.84-5.92-22.93-8.06-27.6-8.06-3.65,0-4.66,1.39-4.66,2.77,0,1.89,1.39,2.65,2.9,3.15,3.78,1.13,16.38,2.65,25.33,9.7,6.17,5.04,9.2,11.47,9.2,19.66,0,17.51-14.11,29.74-38.05,29.74-11.47,0-25.2-2.77-34.15-7.43v-31Z"/>
    </clipPath>
  </defs>
  <g class="cls-3">
    <g>
      <polygon class="cls-2" points="4.68 -12.8 4.68 -13.66 151.68 -13.66 151.68 102.73 150.83 102.73 150.58 -12.81 146.52 -12.8 146.53 102.73 144.38 102.73 144.13 -12.81 142.22 -12.55 142.23 102.73 140.08 102.73 140.08 -12.8 133.63 -12.8 133.63 102.73 127.18 102.73 126.94 -12.81 122.88 -12.8 122.89 102.73 118.59 102.73 118.59 -12.8 109.99 -12.8 109.99 102.73 107.84 102.73 107.59 -12.81 105.69 -12.55 105.69 102.73 101.4 102.73 101.15 -12.81 99.24 -12.55 99.25 102.73 97.1 102.73 97.1 -12.8 90.65 -12.8 90.65 102.73 88.5 102.73 88.25 -12.81 84.2 -12.8 84.2 102.73 77.76 102.73 77.51 -12.81 75.6 -12.55 75.61 102.73 73.46 102.73 73.21 -12.81 69.16 -12.8 69.16 102.73 67.01 102.73 67.01 -12.8 60.56 -12.8 60.56 102.73 58.41 102.73 58.41 -12.8 51.97 -12.8 51.97 102.73 49.82 102.73 49.57 -12.81 47.66 -12.55 47.67 102.73 41.22 102.73 40.97 -12.81 36.92 -12.8 36.92 102.73 34.77 102.73 34.77 -12.8 28.33 -12.8 28.33 102.73 19.73 102.73 19.48 -12.81 17.57 -12.55 17.58 102.73 13.28 102.73 13.03 -12.81 11.12 -12.55 11.13 102.73 8.98 102.73 8.99 -12.8 4.68 -12.8"/>
      <rect x="109.99" y="-12.8" width="8.6" height="115.53"/>
      <rect x="28.33" y="-12.8" width="6.45" height="115.53"/>
      <rect x="51.97" y="-12.8" width="6.45" height="115.53"/>
      <rect x="60.56" y="-12.8" width="6.45" height="115.53"/>
      <rect x="90.65" y="-12.8" width="6.45" height="115.53"/>
      <rect x="133.63" y="-12.8" width="6.45" height="115.53"/>
      <rect x="4.68" y="-12.8" width="4.3" height="115.54"/>
      <polygon points="36.92 102.73 36.92 -12.8 40.97 -12.81 41.22 102.73 36.92 102.73"/>
      <polygon points="69.16 102.73 69.16 -12.8 73.21 -12.81 73.46 102.73 69.16 102.73"/>
      <polygon points="84.2 102.73 84.2 -12.8 88.25 -12.81 88.5 102.73 84.2 102.73"/>
      <polygon points="122.89 102.73 122.88 -12.8 126.94 -12.81 127.18 102.73 122.89 102.73"/>
      <polygon points="146.53 102.73 146.52 -12.8 150.58 -12.81 150.83 102.73 146.53 102.73"/>
      <polygon points="11.13 102.73 11.12 -12.55 13.03 -12.81 13.28 102.73 11.13 102.73"/>
      <polygon points="17.58 102.73 17.57 -12.55 19.48 -12.81 19.73 102.73 17.58 102.73"/>
      <polygon points="47.67 102.73 47.66 -12.55 49.57 -12.81 49.82 102.73 47.67 102.73"/>
      <polygon points="75.61 102.73 75.6 -12.55 77.51 -12.81 77.76 102.73 75.61 102.73"/>
      <polygon points="99.25 102.73 99.24 -12.55 101.15 -12.81 101.4 102.73 99.25 102.73"/>
      <polygon points="105.69 102.73 105.69 -12.55 107.59 -12.81 107.84 102.73 105.69 102.73"/>
      <polygon points="142.23 102.73 142.22 -12.55 144.13 -12.81 144.38 102.73 142.23 102.73"/>
    </g>
  </g>
</svg>