<?xml version="1.0" encoding="UTF-8"?>
<svg id="Layer_1" data-name="Layer 1" xmlns="http://www.w3.org/2000/svg" xmlns:xlink="http://www.w3.org/1999/xlink" viewBox="0 0 271.28 97.08">
  <defs>
    <style>
      .cls-1 {
        fill: none;
      }

      .cls-2 {
        fill: #fff;
      }

      .cls-3 {
        opacity: .34;
      }

      .cls-4 {
        clip-path: url(#clippath);
      }
    </style>
    <clipPath id="clippath">
      <rect class="cls-1" x="61.02" y="16.37" width="147" height="64.57"/>
    </clipPath>
  </defs>
  <g class="cls-4">
    <g class="cls-3">
      <g>
        <polygon class="cls-2" points="63.87 15.84 63.87 15.36 208.87 15.36 208.87 80.36 208.38 80.36 208.38 15.84 204.06 15.84 204.06 80.36 201.89 80.36 201.75 15.83 199.73 15.83 199.73 80.36 197.56 80.36 197.56 15.84 191.31 15.84 191.31 80.36 184.82 80.36 184.82 15.84 180.73 15.84 180.73 80.36 176.4 80.36 176.4 15.84 167.99 15.84 167.99 80.36 165.82 80.36 165.68 15.83 163.66 15.83 163.66 80.36 159.33 80.36 159.19 15.83 157.41 15.83 157.41 80.36 155.24 80.36 155.24 15.84 148.75 15.84 148.75 80.36 146.59 80.36 146.59 15.84 142.5 15.84 142.5 80.36 136.01 80.36 135.87 15.83 133.84 15.83 133.84 80.36 131.92 80.36 131.92 15.84 127.59 15.84 127.59 80.36 125.42 80.36 125.42 15.84 119.17 15.84 119.17 80.36 117.01 80.36 117.01 15.84 110.52 15.84 110.52 80.36 108.35 80.36 108.21 15.83 106.43 15.83 106.43 80.36 99.94 80.36 99.94 15.84 95.61 15.84 95.61 80.36 93.68 80.36 93.68 15.84 87.19 15.84 87.19 80.36 78.77 80.36 78.64 15.83 76.61 15.83 76.61 80.36 72.28 80.36 72.14 15.83 70.12 15.83 70.12 80.36 68.19 80.36 68.2 15.83 63.87 15.84"/>
        <rect x="167.99" y="15.84" width="8.42" height="64.52"/>
        <rect x="87.19" y="15.84" width="6.49" height="64.52"/>
        <rect x="110.52" y="15.84" width="6.49" height="64.52"/>
        <rect x="148.75" y="15.84" width="6.49" height="64.52"/>
        <rect x="119.17" y="15.84" width="6.25" height="64.52"/>
        <rect x="191.31" y="15.84" width="6.25" height="64.52"/>
        <rect x="63.87" y="15.84" width="4.33" height="64.52"/>
        <rect x="95.61" y="15.84" width="4.33" height="64.52"/>
        <rect x="127.59" y="15.84" width="4.33" height="64.52"/>
        <rect x="204.06" y="15.84" width="4.33" height="64.52"/>
        <rect x="142.5" y="15.84" width="4.09" height="64.52"/>
        <rect x="180.73" y="15.84" width="4.09" height="64.52"/>
        <polygon points="70.12 80.36 70.12 15.83 72.14 15.83 72.28 80.36 70.12 80.36"/>
        <polygon points="76.61 80.36 76.61 15.83 78.64 15.83 78.77 80.36 76.61 80.36"/>
        <polygon points="133.84 80.36 133.84 15.83 135.87 15.83 136.01 80.36 133.84 80.36"/>
        <polygon points="163.66 80.36 163.66 15.83 165.68 15.83 165.82 80.36 163.66 80.36"/>
        <polygon points="199.73 80.36 199.73 15.83 201.75 15.83 201.89 80.36 199.73 80.36"/>
        <polygon points="106.43 80.36 106.43 15.83 108.21 15.83 108.35 80.36 106.43 80.36"/>
        <polygon points="157.41 80.36 157.41 15.83 159.19 15.83 159.33 80.36 157.41 80.36"/>
      </g>
    </g>
  </g>
  <g>
    <path class="cls-2" d="M38.41,63.91v-8.67c0-.88.38-1.52,1.13-1.89.75-.38,1.97-.57,3.63-.57.83,0,1.52.05,2.07.14.55.09.98.23,1.29.43s.53.45.66.76c.13.31.2.69.2,1.13v14.53c0,.91-.2,1.56-.59,1.95s-1.04.59-1.95.59H13.06c-.44,0-.82-.05-1.13-.16-.31-.1-.57-.3-.76-.59-.2-.29-.34-.69-.43-1.21-.09-.52-.14-1.2-.14-2.03,0-1.72.26-2.93.78-3.63l22.42-30.35h-13.05v7.89c0,.89-.38,1.52-1.13,1.89-.76.38-1.97.57-3.63.57-.83,0-1.52-.04-2.07-.14-.55-.09-.98-.23-1.29-.43s-.53-.45-.66-.76c-.13-.31-.2-.69-.2-1.13v-13.75c0-.91.2-1.56.59-1.95s1.04-.59,1.95-.59h30.62c.44,0,.82.05,1.13.16.31.1.57.31.76.61.2.3.34.71.43,1.23.09.52.14,1.2.14,2.03s-.08,1.54-.23,2.13-.38,1.07-.66,1.46l-22.42,30.35h14.34Z"/>
    <path class="cls-2" d="M58.29,33.95h-5.74c-.44,0-.82-.05-1.13-.16-.31-.1-.57-.3-.76-.59-.2-.29-.34-.69-.43-1.21-.09-.52-.14-1.2-.14-2.03s.04-1.51.14-2.03c.09-.52.23-.93.43-1.23.2-.3.45-.5.76-.61.31-.1.69-.16,1.13-.16h21.37c6.04,0,10.59,1.36,13.65,4.08,3.06,2.72,4.59,6.6,4.59,11.62s-1.53,8.91-4.59,11.64-7.61,4.1-13.65,4.1h-5.86v6.91h8.48c.44,0,.82.05,1.13.16.31.1.57.31.76.61.2.3.34.71.43,1.23.09.52.14,1.2.14,2.03s-.04,1.51-.14,2.03c-.09.52-.23.92-.43,1.21-.2.29-.45.48-.76.59-.31.1-.69.16-1.13.16h-23.98c-.44,0-.82-.05-1.13-.16-.31-.1-.57-.3-.76-.59-.2-.29-.34-.69-.43-1.21-.09-.52-.14-1.2-.14-2.03s.04-1.51.14-2.03c.09-.52.23-.93.43-1.23.2-.3.45-.5.76-.61.31-.1.69-.16,1.13-.16h5.74v-30.35ZM72.7,48.99c3.07,0,5.4-.59,6.99-1.78,1.59-1.18,2.38-3.04,2.38-5.57s-.79-4.38-2.38-5.55c-1.59-1.17-3.92-1.76-6.99-1.76h-4.65v14.65h4.65Z"/>
    <path class="cls-2" d="M100.77,33.95h-5.7c-.44,0-.82-.05-1.13-.16-.31-.1-.57-.3-.76-.59-.2-.29-.34-.69-.43-1.21-.09-.52-.14-1.2-.14-2.03s.04-1.51.14-2.03c.09-.52.23-.93.43-1.23.2-.3.45-.5.76-.61.31-.1.69-.16,1.13-.16h23.98c.44,0,.82.05,1.13.16.31.1.57.31.76.61.2.3.34.71.43,1.23.09.52.14,1.2.14,2.03s-.05,1.51-.14,2.03c-.09.52-.23.92-.43,1.21-.2.29-.45.48-.76.59-.31.1-.69.16-1.13.16h-8.52v29.96h13.71v-12.19c0-.88.39-1.52,1.17-1.89.78-.38,2.11-.57,3.98-.57.94,0,1.7.05,2.29.14.59.09,1.05.23,1.41.43s.59.45.72.76c.13.31.2.69.2,1.13v18.05c0,.91-.2,1.56-.59,1.95s-1.04.59-1.95.59h-36.41c-.44,0-.82-.05-1.13-.16-.31-.1-.57-.3-.76-.59-.2-.29-.34-.69-.43-1.21-.09-.52-.14-1.2-.14-2.03s.04-1.51.14-2.03c.09-.52.23-.93.43-1.23.2-.3.45-.5.76-.61.31-.1.69-.16,1.13-.16h5.7v-30.35Z"/>
    <path class="cls-2" d="M150.57,49.57l-8.59-8.59c-.31-.31-.53-.62-.66-.92-.13-.3-.16-.63-.08-1,.08-.36.29-.78.62-1.25.34-.47.83-1.03,1.48-1.68s1.21-1.15,1.68-1.48c.47-.34.89-.55,1.27-.64.38-.09.71-.06,1,.08.29.14.59.37.9.68l8.59,8.59,8.59-8.59c.31-.31.61-.54.9-.68.29-.14.62-.17,1-.08.38.09.8.31,1.27.64.47.34,1.03.83,1.68,1.48.65.65,1.15,1.21,1.48,1.68.34.47.55.89.62,1.25.08.37.05.7-.08,1-.13.3-.35.61-.66.92l-8.59,8.59,8.59,8.59c.31.31.54.61.68.9.14.29.17.62.08,1-.09.38-.31.8-.64,1.27-.34.47-.83,1.03-1.48,1.68s-1.21,1.15-1.68,1.48c-.47.34-.89.55-1.25.62-.37.08-.7.05-1-.08-.3-.13-.61-.35-.92-.66l-8.59-8.59-8.59,8.59c-.31.31-.62.53-.92.66-.3.13-.63.16-1,.08-.37-.08-.78-.29-1.25-.62-.47-.34-1.03-.83-1.68-1.48-.65-.65-1.15-1.21-1.48-1.68-.34-.47-.55-.89-.64-1.27-.09-.38-.07-.71.08-1,.14-.29.37-.59.68-.9l8.59-8.59Z"/>
    <path class="cls-2" d="M189.89,33.95c-.44,0-.82-.05-1.13-.16-.31-.1-.57-.3-.76-.59-.2-.29-.34-.69-.43-1.21-.09-.52-.14-1.2-.14-2.03s.04-1.51.14-2.03c.09-.52.23-.93.43-1.23.2-.3.45-.5.76-.61.31-.1.69-.16,1.13-.16h28.98c.44,0,.82.05,1.13.16.31.1.57.31.76.61.2.3.34.71.43,1.23.09.52.14,1.2.14,2.03s-.05,1.51-.14,2.03c-.09.52-.23.92-.43,1.21-.2.29-.45.48-.76.59-.31.1-.69.16-1.13.16h-7.27v24.18c0,5.05-1.41,8.82-4.24,11.31-2.83,2.49-6.95,3.73-12.36,3.73-6.12,0-11.19-1.91-15.2-5.74-.42-.42-.62-1.07-.62-1.95v-12.66c0-.88.39-1.52,1.17-1.89.78-.38,2.11-.57,3.98-.57.94,0,1.7.05,2.29.14.59.09,1.05.23,1.41.43s.59.45.72.76c.13.31.2.69.2,1.13v10.16c1.8.89,3.96,1.33,6.48,1.33,2.11,0,3.7-.55,4.79-1.66,1.08-1.11,1.62-2.87,1.62-5.29v-23.4h-11.95Z"/>
    <path class="cls-2" d="M233.05,70.71c0,.89-.31,1.52-.94,1.89s-1.77.57-3.44.57-2.85-.19-3.55-.57-1.05-1.01-1.05-1.89v-13.05c0-.88.28-1.52.84-1.89.56-.38,1.48-.57,2.75-.57.91,0,1.63.12,2.17.35.53.23.94.64,1.23,1.21,1.41,2.66,3.07,4.67,5,6.04,1.93,1.37,4.22,2.05,6.88,2.05,2.34,0,4.1-.47,5.27-1.43,1.17-.95,1.76-2.25,1.76-3.89,0-1.09-.28-1.99-.84-2.7-.56-.7-1.32-1.29-2.29-1.76-1.04-.49-2.25-.9-3.63-1.23-1.38-.33-2.83-.64-4.34-.96-1.51-.31-3.03-.67-4.57-1.07-1.54-.4-2.97-.96-4.3-1.66-.91-.47-1.75-1.03-2.52-1.68-.77-.65-1.44-1.41-2.01-2.29-.57-.87-1.02-1.88-1.33-3.03-.31-1.15-.47-2.45-.47-3.91,0-2.08.36-3.99,1.09-5.72.73-1.73,1.76-3.22,3.11-4.47,1.34-1.25,2.94-2.23,4.8-2.93,1.86-.7,3.93-1.05,6.19-1.05,2.11,0,4.04.34,5.8,1.02,1.76.68,3.29,1.64,4.59,2.89v-1.45c0-.88.31-1.52.94-1.89.62-.38,1.77-.57,3.44-.57s2.85.19,3.55.57c.7.38,1.05,1.01,1.05,1.89v10.7c0,.89-.28,1.52-.84,1.89-.56.38-1.48.57-2.75.57-.89,0-1.57-.1-2.05-.31-.48-.21-.87-.52-1.15-.94-1.2-1.88-2.75-3.35-4.65-4.43-1.9-1.08-4.15-1.62-6.76-1.62-1.95,0-3.46.5-4.51,1.48-1.05.99-1.58,2.23-1.58,3.71,0,.78.25,1.41.74,1.89.49.48,1.16.89,1.99,1.23,1.02.39,2.23.71,3.65.96,1.42.25,2.92.53,4.49.84,1.58.31,3.16.7,4.77,1.17s3.09,1.12,4.47,1.95c.88.55,1.71,1.19,2.48,1.93.77.74,1.43,1.61,1.99,2.6.56.99,1,2.12,1.31,3.4.31,1.28.47,2.71.47,4.3,0,2.11-.33,4.04-1,5.8s-1.67,3.26-3.03,4.51c-1.35,1.25-3.04,2.23-5.06,2.93-2.02.7-4.39,1.05-7.13,1.05-4.35,0-8.03-1.31-11.05-3.95v1.48Z"/>
  </g>
</svg>