<?xml version="1.0" encoding="UTF-8"?>
<svg id="Layer_1" data-name="Layer 1" xmlns="http://www.w3.org/2000/svg" viewBox="0 0 271.28 97.08">
  <defs>
    <style>
      .cls-1 {
        fill: #fff;
      }

      .cls-2 {
        opacity: .34;
      }
    </style>
  </defs>
  <g class="cls-2">
    <g>
      <polygon class="cls-1" points="63.14 16.98 63.14 16.5 208.14 16.5 208.14 81.5 207.66 81.5 207.66 16.98 203.33 16.98 203.33 81.5 201.17 81.5 201.03 16.98 199 16.98 199 81.5 196.84 81.5 196.84 16.98 190.59 16.98 190.59 81.5 184.09 81.5 184.09 16.98 180.01 16.98 180.01 81.5 175.68 81.5 175.68 16.98 167.26 16.98 167.26 81.5 165.1 81.5 164.96 16.98 162.93 16.98 162.93 81.5 158.6 81.5 158.47 16.98 156.68 16.98 156.68 81.5 154.52 81.5 154.52 16.98 148.02 16.98 148.02 81.5 145.86 81.5 145.86 16.98 141.77 16.98 141.77 81.5 135.28 81.5 135.14 16.98 133.11 16.98 133.11 81.5 131.19 81.5 131.19 16.98 126.86 16.98 126.86 81.5 124.7 81.5 124.7 16.98 118.45 16.98 118.45 81.5 116.28 81.5 116.28 16.98 109.79 16.98 109.79 81.5 107.63 81.5 107.49 16.98 105.7 16.98 105.7 81.5 99.21 81.5 99.21 16.98 94.88 16.98 94.88 81.5 92.96 81.5 92.96 16.98 86.46 16.98 86.46 81.5 78.05 81.5 77.91 16.98 75.88 16.98 75.88 81.5 71.56 81.5 71.42 16.98 69.39 16.98 69.39 81.5 67.47 81.5 67.47 16.98 63.14 16.98"/>
      <rect x="167.26" y="16.98" width="8.42" height="64.52"/>
      <rect x="86.46" y="16.98" width="6.49" height="64.52"/>
      <rect x="109.79" y="16.98" width="6.49" height="64.52"/>
      <rect x="148.02" y="16.98" width="6.49" height="64.52"/>
      <rect x="118.45" y="16.98" width="6.25" height="64.52"/>
      <rect x="190.59" y="16.98" width="6.25" height="64.52"/>
      <rect x="63.14" y="16.98" width="4.33" height="64.52"/>
      <rect x="94.88" y="16.98" width="4.33" height="64.52"/>
      <rect x="126.86" y="16.98" width="4.33" height="64.52"/>
      <rect x="203.33" y="16.98" width="4.33" height="64.52"/>
      <rect x="141.77" y="16.98" width="4.09" height="64.52"/>
      <rect x="180.01" y="16.98" width="4.09" height="64.52"/>
      <polygon points="69.39 81.5 69.39 16.98 71.42 16.98 71.56 81.5 69.39 81.5"/>
      <polygon points="75.88 81.5 75.88 16.98 77.91 16.98 78.05 81.5 75.88 81.5"/>
      <polygon points="133.11 81.5 133.11 16.98 135.14 16.98 135.28 81.5 133.11 81.5"/>
      <polygon points="162.93 81.5 162.93 16.98 164.96 16.98 165.1 81.5 162.93 81.5"/>
      <polygon points="199 81.5 199 16.98 201.03 16.98 201.17 81.5 199 81.5"/>
      <polygon points="105.7 81.5 105.7 16.98 107.49 16.98 107.63 81.5 105.7 81.5"/>
      <polygon points="156.68 81.5 156.68 16.98 158.47 16.98 158.6 81.5 156.68 81.5"/>
    </g>
  </g>
  <g>
    <path d="M38.54,63.83v-8.67c0-.88.38-1.52,1.13-1.89.75-.38,1.97-.57,3.63-.57.83,0,1.52.05,2.07.14.55.09.98.23,1.29.43s.53.45.66.76c.13.31.2.69.2,1.13v14.53c0,.91-.2,1.56-.59,1.95s-1.04.59-1.95.59H13.19c-.44,0-.82-.05-1.13-.16-.31-.1-.57-.3-.76-.59-.2-.29-.34-.69-.43-1.21-.09-.52-.14-1.2-.14-2.03,0-1.72.26-2.93.78-3.63l22.42-30.35h-13.05v7.89c0,.89-.38,1.52-1.13,1.89-.76.38-1.97.57-3.63.57-.83,0-1.52-.04-2.07-.14-.55-.09-.98-.23-1.29-.43s-.53-.45-.66-.76c-.13-.31-.2-.69-.2-1.13v-13.75c0-.91.2-1.56.59-1.95s1.04-.59,1.95-.59h30.62c.44,0,.82.05,1.13.16.31.1.57.31.76.61.2.3.34.71.43,1.23.09.52.14,1.2.14,2.03s-.08,1.54-.23,2.13-.38,1.07-.66,1.46l-22.42,30.35h14.34Z"/>
    <path d="M58.41,33.87h-5.74c-.44,0-.82-.05-1.13-.16-.31-.1-.57-.3-.76-.59-.2-.29-.34-.69-.43-1.21-.09-.52-.14-1.2-.14-2.03s.04-1.51.14-2.03c.09-.52.23-.93.43-1.23.2-.3.45-.5.76-.61.31-.1.69-.16,1.13-.16h21.37c6.04,0,10.59,1.36,13.65,4.08,3.06,2.72,4.59,6.6,4.59,11.62s-1.53,8.91-4.59,11.64-7.61,4.1-13.65,4.1h-5.86v6.91h8.48c.44,0,.82.05,1.13.16.31.1.57.31.76.61.2.3.34.71.43,1.23.09.52.14,1.2.14,2.03s-.04,1.51-.14,2.03c-.09.52-.23.92-.43,1.21-.2.29-.45.48-.76.59-.31.1-.69.16-1.13.16h-23.98c-.44,0-.82-.05-1.13-.16-.31-.1-.57-.3-.76-.59-.2-.29-.34-.69-.43-1.21-.09-.52-.14-1.2-.14-2.03s.04-1.51.14-2.03c.09-.52.23-.93.43-1.23.2-.3.45-.5.76-.61.31-.1.69-.16,1.13-.16h5.74v-30.35ZM72.82,48.9c3.07,0,5.4-.59,6.99-1.78,1.59-1.18,2.38-3.04,2.38-5.57s-.79-4.38-2.38-5.55c-1.59-1.17-3.92-1.76-6.99-1.76h-4.65v14.65h4.65Z"/>
    <path d="M100.9,33.87h-5.7c-.44,0-.82-.05-1.13-.16-.31-.1-.57-.3-.76-.59-.2-.29-.34-.69-.43-1.21-.09-.52-.14-1.2-.14-2.03s.04-1.51.14-2.03c.09-.52.23-.93.43-1.23.2-.3.45-.5.76-.61.31-.1.69-.16,1.13-.16h23.98c.44,0,.82.05,1.13.16.31.1.57.31.76.61.2.3.34.71.43,1.23.09.52.14,1.2.14,2.03s-.05,1.51-.14,2.03c-.09.52-.23.92-.43,1.21-.2.29-.45.48-.76.59-.31.1-.69.16-1.13.16h-8.52v29.96h13.71v-12.19c0-.88.39-1.52,1.17-1.89.78-.38,2.11-.57,3.98-.57.94,0,1.7.05,2.29.14.59.09,1.05.23,1.41.43s.59.45.72.76c.13.31.2.69.2,1.13v18.05c0,.91-.2,1.56-.59,1.95s-1.04.59-1.95.59h-36.41c-.44,0-.82-.05-1.13-.16-.31-.1-.57-.3-.76-.59-.2-.29-.34-.69-.43-1.21-.09-.52-.14-1.2-.14-2.03s.04-1.51.14-2.03c.09-.52.23-.93.43-1.23.2-.3.45-.5.76-.61.31-.1.69-.16,1.13-.16h5.7v-30.35Z"/>
    <path d="M150.69,49.49l-8.59-8.59c-.31-.31-.53-.62-.66-.92-.13-.3-.16-.63-.08-1,.08-.36.29-.78.62-1.25.34-.47.83-1.03,1.48-1.68s1.21-1.15,1.68-1.48c.47-.34.89-.55,1.27-.64.38-.09.71-.06,1,.08.29.14.59.37.9.68l8.59,8.59,8.59-8.59c.31-.31.61-.54.9-.68.29-.14.62-.17,1-.08.38.09.8.31,1.27.64.47.34,1.03.83,1.68,1.48.65.65,1.15,1.21,1.48,1.68.34.47.55.89.62,1.25.08.37.05.7-.08,1-.13.3-.35.61-.66.92l-8.59,8.59,8.59,8.59c.31.31.54.61.68.9.14.29.17.62.08,1-.09.38-.31.8-.64,1.27-.34.47-.83,1.03-1.48,1.68s-1.21,1.15-1.68,1.48c-.47.34-.89.55-1.25.62-.37.08-.7.05-1-.08-.3-.13-.61-.35-.92-.66l-8.59-8.59-8.59,8.59c-.31.31-.62.53-.92.66-.3.13-.63.16-1,.08-.37-.08-.78-.29-1.25-.62-.47-.34-1.03-.83-1.68-1.48-.65-.65-1.15-1.21-1.48-1.68-.34-.47-.55-.89-.64-1.27-.09-.38-.07-.71.08-1,.14-.29.37-.59.68-.9l8.59-8.59Z"/>
    <path d="M190.02,33.87c-.44,0-.82-.05-1.13-.16-.31-.1-.57-.3-.76-.59-.2-.29-.34-.69-.43-1.21-.09-.52-.14-1.2-.14-2.03s.04-1.51.14-2.03c.09-.52.23-.93.43-1.23.2-.3.45-.5.76-.61.31-.1.69-.16,1.13-.16h28.98c.44,0,.82.05,1.13.16.31.1.57.31.76.61.2.3.34.71.43,1.23.09.52.14,1.2.14,2.03s-.05,1.51-.14,2.03c-.09.52-.23.92-.43,1.21-.2.29-.45.48-.76.59-.31.1-.69.16-1.13.16h-7.27v24.18c0,5.05-1.41,8.82-4.24,11.31-2.83,2.49-6.95,3.73-12.36,3.73-6.12,0-11.19-1.91-15.2-5.74-.42-.42-.62-1.07-.62-1.95v-12.66c0-.88.39-1.52,1.17-1.89.78-.38,2.11-.57,3.98-.57.94,0,1.7.05,2.29.14.59.09,1.05.23,1.41.43s.59.45.72.76c.13.31.2.69.2,1.13v10.16c1.8.89,3.96,1.33,6.48,1.33,2.11,0,3.7-.55,4.79-1.66,1.08-1.11,1.62-2.87,1.62-5.29v-23.4h-11.95Z"/>
    <path d="M233.17,70.62c0,.89-.31,1.52-.94,1.89s-1.77.57-3.44.57-2.85-.19-3.55-.57-1.05-1.01-1.05-1.89v-13.05c0-.88.28-1.52.84-1.89.56-.38,1.48-.57,2.75-.57.91,0,1.63.12,2.17.35.53.23.94.64,1.23,1.21,1.41,2.66,3.07,4.67,5,6.04,1.93,1.37,4.22,2.05,6.88,2.05,2.34,0,4.1-.47,5.27-1.43,1.17-.95,1.76-2.25,1.76-3.89,0-1.09-.28-1.99-.84-2.7-.56-.7-1.32-1.29-2.29-1.76-1.04-.49-2.25-.9-3.63-1.23-1.38-.33-2.83-.64-4.34-.96-1.51-.31-3.03-.67-4.57-1.07-1.54-.4-2.97-.96-4.3-1.66-.91-.47-1.75-1.03-2.52-1.68-.77-.65-1.44-1.41-2.01-2.29-.57-.87-1.02-1.88-1.33-3.03-.31-1.15-.47-2.45-.47-3.91,0-2.08.36-3.99,1.09-5.72.73-1.73,1.76-3.22,3.11-4.47,1.34-1.25,2.94-2.23,4.8-2.93,1.86-.7,3.93-1.05,6.19-1.05,2.11,0,4.04.34,5.8,1.02,1.76.68,3.29,1.64,4.59,2.89v-1.45c0-.88.31-1.52.94-1.89.62-.38,1.77-.57,3.44-.57s2.85.19,3.55.57c.7.38,1.05,1.01,1.05,1.89v10.7c0,.89-.28,1.52-.84,1.89-.56.38-1.48.57-2.75.57-.89,0-1.57-.1-2.05-.31-.48-.21-.87-.52-1.15-.94-1.2-1.88-2.75-3.35-4.65-4.43-1.9-1.08-4.15-1.62-6.76-1.62-1.95,0-3.46.5-4.51,1.48-1.05.99-1.58,2.23-1.58,3.71,0,.78.25,1.41.74,1.89.49.48,1.16.89,1.99,1.23,1.02.39,2.23.71,3.65.96,1.42.25,2.92.53,4.49.84,1.58.31,3.16.7,4.77,1.17s3.09,1.12,4.47,1.95c.88.55,1.71,1.19,2.48,1.93.77.74,1.43,1.61,1.99,2.6.56.99,1,2.12,1.31,3.4.31,1.28.47,2.71.47,4.3,0,2.11-.33,4.04-1,5.8s-1.67,3.26-3.03,4.51c-1.35,1.25-3.04,2.23-5.06,2.93-2.02.7-4.39,1.05-7.13,1.05-4.35,0-8.03-1.31-11.05-3.95v1.48Z"/>
  </g>
</svg>